<svg width="1440" height="272" viewBox="0 0 1440 272" fill="none" xmlns="http://www.w3.org/2000/svg">
<path fill-rule="evenodd" clip-rule="evenodd" d="M0 0L48 5.66667C96 11.3333 192 22.6667 288 51C384 79.3333 480 124.667 576 124.667C672 124.667 768 79.3333 864 51C960 22.6667 1056 11.3333 1152 22.6667C1248 34 1344 68 1392 85L1440 102V272H1392C1344 272 1248 272 1152 272C1056 272 960 272 864 272C768 272 672 272 576 272C480 272 384 272 288 272C192 272 96 272 48 272H0V0Z" fill="white" fill-opacity="0.6"/>
<path fill-rule="evenodd" clip-rule="evenodd" d="M0 129.5L40 102.552C80 75.604 160 21.7081 240 16.4682C320 11.2283 400 53.896 480 59.8844C560 65.1243 640 32.9364 720 38.1763C800 43.4162 880 86.8324 960 102.552C1040 119.02 1120 107.792 1200 86.8324C1280 65.1243 1360 32.9364 1400 16.4682L1440 0V259H1400C1360 259 1280 259 1200 259C1120 259 1040 259 960 259C880 259 800 259 720 259C640 259 560 259 480 259C400 259 320 259 240 259C160 259 80 259 40 259H0V129.5Z" fill="white"/>
<path fill-rule="evenodd" clip-rule="evenodd" d="M0 228.362L60 192.618C120 156.873 240 85.3848 360 44.5341C480 3.6835 600 -6.52916 720 3.6835C840 13.8962 960 44.5341 1080 70.0658C1200 95.5974 1320 116.023 1380 126.235L1440 136.448V259H1380C1320 259 1200 259 1080 259C960 259 840 259 720 259C600 259 480 259 360 259C240 259 120 259 60 259H0V228.362Z" fill="white" fill-opacity="0.4"/>
</svg>
