<svg width="62" height="49" viewBox="0 0 62 49" fill="none" xmlns="http://www.w3.org/2000/svg">
<path d="M31 2C14.9837 2 2 12.0736 2 24.5C2 36.9263 14.9837 47 31 47C47.0161 47 60 36.9263 60 24.5C60 12.0736 47.0161 2 31 2Z" stroke="white" stroke-width="4" stroke-linecap="round" stroke-linejoin="round"/>
<path d="M8.58588 38.7778C8.58588 38.7778 15.05 32.375 31 32.375C46.95 32.375 53.4144 38.7778 53.4144 38.7778" stroke="white" stroke-width="4" stroke-linecap="round" stroke-linejoin="round"/>
<path d="M31 24.5C35.805 24.5 39.7 21.478 39.7 17.75C39.7 14.0221 35.805 11 31 11C26.195 11 22.3 14.0221 22.3 17.75C22.3 21.478 26.195 24.5 31 24.5Z" stroke="white" stroke-width="4" stroke-linecap="round" stroke-linejoin="round"/>
</svg>
